<svg width="33" height="32" viewBox="0 0 33 32" fill="none" xmlns="http://www.w3.org/2000/svg">
<path d="M11.2588 16.2643L16.4322 11.091M20.5709 15.2296L15.3975 20.4031" stroke="white" stroke-width="2"/>
<path d="M4.74274 20.8257C3.53714 19.6201 2.93436 19.0173 2.84838 18.2812C2.82918 18.1169 2.82918 17.9509 2.84838 17.7865C2.93436 17.0505 3.53714 16.4477 4.74273 15.2421C5.94832 14.0365 6.55112 13.4337 7.28724 13.3477C7.45156 13.3285 7.61756 13.3285 7.78188 13.3477C8.518 13.4337 9.1208 14.0365 10.3264 15.2421L16.9252 21.8409C18.1308 23.0465 18.7336 23.6493 18.8196 24.3855C18.8388 24.5497 18.8388 24.7157 18.8196 24.8801C18.7336 25.6163 18.1308 26.2189 16.9252 27.4245C15.7196 28.6301 15.1169 29.2329 14.3808 29.3189C14.2164 29.3381 14.0504 29.3381 13.8861 29.3189C13.15 29.2329 12.5472 28.6301 11.3416 27.4245L4.74274 20.8257Z" stroke="white" stroke-width="2"/>
<path d="M15.4088 10.1591C14.2032 8.95347 13.6004 8.35067 13.5144 7.61455C13.4952 7.45023 13.4952 7.28423 13.5144 7.11991C13.6004 6.38379 14.2032 5.781 15.4088 4.5754C16.6144 3.36982 17.2172 2.76703 17.9532 2.68106C18.1176 2.66186 18.2836 2.66186 18.4479 2.68106C19.184 2.76703 19.7868 3.36982 20.9924 4.5754L27.5912 11.1743C28.7968 12.3798 29.3996 12.9826 29.4856 13.7188C29.5048 13.8831 29.5048 14.0491 29.4856 14.2135C29.3996 14.9496 28.7968 15.5523 27.5912 16.7579C26.3856 17.9635 25.7829 18.5663 25.0468 18.6523C24.8824 18.6715 24.7164 18.6715 24.5521 18.6523C23.816 18.5663 23.2132 17.9635 22.0076 16.7579L15.4088 10.1591Z" stroke="white" stroke-width="2"/>
<path d="M24.1914 3.33072L28.3301 7.4694" stroke="white" stroke-width="2" stroke-linecap="round" stroke-linejoin="round"/>
<path d="M3.49707 24.0248L7.63575 28.1635" stroke="white" stroke-width="2" stroke-linecap="round" stroke-linejoin="round"/>
</svg>
