<svg width="33" height="32" viewBox="0 0 33 32" fill="none" xmlns="http://www.w3.org/2000/svg">
<path d="M12.5444 29.3332C10.2975 28.3304 8.44156 26.7678 7.22168 24.6758" stroke="white" stroke-width="2" stroke-linecap="round"/>
<path d="M20.5996 2.91456C22.8355 2.27839 25.1437 2.88403 26.7549 4.52961" stroke="white" stroke-width="2" stroke-linecap="round"/>
<path d="M14.7215 12.7002C14.9998 13.1773 15.6121 13.3385 16.0891 13.0603C16.5662 12.7821 16.7274 12.1698 16.4493 11.6927L14.7215 12.7002ZM10.8836 16.1769C11.1618 16.654 11.7741 16.8152 12.2512 16.5369C12.7283 16.2588 12.8895 15.6465 12.6113 15.1693L10.8836 16.1769ZM22.2295 13.5321L22.7258 14.4004C22.9574 14.268 23.1265 14.0487 23.1955 13.7911C23.2646 13.5333 23.2278 13.2589 23.0934 13.0284L22.2295 13.5321ZM19.2115 20.4C19.4898 20.8771 20.1021 21.0383 20.5791 20.7601C21.0563 20.4819 21.2175 19.8696 20.9393 19.3925L19.2115 20.4ZM6.67652 12.0236C7.52141 11.5407 8.35316 11.8376 8.63857 12.327L10.3663 11.3195C9.41179 9.68271 7.26883 9.38152 5.68413 10.2872L6.67652 12.0236ZM5.68413 10.2872C4.09633 11.1946 3.27995 13.1959 4.2394 14.8412L5.96709 13.8337C5.68665 13.3528 5.83471 12.5047 6.67652 12.0236L5.68413 10.2872ZM10.2315 5.00047L11.354 6.92541L13.0817 5.91792L11.9592 3.99297L10.2315 5.00047ZM11.354 6.92541L14.7215 12.7002L16.4493 11.6927L13.0817 5.91792L11.354 6.92541ZM12.6113 15.1693L10.3663 11.3195L8.63857 12.327L10.8836 16.1769L12.6113 15.1693ZM10.3663 11.3195L7.55999 6.50716L5.83229 7.51465L8.63857 12.327L10.3663 11.3195ZM8.26941 4.69708C9.11431 4.21421 9.94605 4.51104 10.2315 5.00047L11.9592 3.99297C11.0047 2.35617 8.86172 2.05499 7.27703 2.96065L8.26941 4.69708ZM7.27703 2.96065C5.68923 3.86811 4.87284 5.86933 5.83229 7.51465L7.55999 6.50716C7.27955 6.02624 7.4276 5.17819 8.26941 4.69708L7.27703 2.96065ZM15.7531 4.41123L19.1207 10.1861L20.8485 9.17856L17.4809 3.40373L15.7531 4.41123ZM19.1207 10.1861L21.3658 14.0359L23.0934 13.0284L20.8485 9.17856L19.1207 10.1861ZM13.7911 4.10784C14.6361 3.62497 15.4678 3.9218 15.7531 4.41123L17.4809 3.40373C16.5263 1.76693 14.3834 1.46575 12.7987 2.37141L13.7911 4.10784ZM12.7987 2.37141C11.2109 3.27887 10.3945 5.28009 11.354 6.92541L13.0817 5.91792C12.8012 5.437 12.9493 4.58895 13.7911 4.10784L12.7987 2.37141ZM23.5199 7.67187L26.8874 13.4467L28.6151 12.4392L25.2475 6.66437L23.5199 7.67187ZM21.5578 7.36848C22.4027 6.88561 23.2345 7.18244 23.5199 7.67187L25.2475 6.66437C24.2931 5.02759 22.1502 4.72639 20.5654 5.63207L21.5578 7.36848ZM20.5654 5.63207C18.9777 6.53951 18.1613 8.54075 19.1207 10.1861L20.8485 9.17856C20.5679 8.69764 20.7161 7.84959 21.5578 7.36848L20.5654 5.63207ZM4.2394 14.8412L9.29071 23.5035L11.0184 22.4959L5.96709 13.8337L4.2394 14.8412ZM22.9467 24.8028C18.4575 27.3685 13.1637 26.1747 11.0184 22.4959L9.29071 23.5035C12.105 28.3296 18.7101 29.5277 23.9391 26.5393L22.9467 24.8028ZM26.8874 13.4467C29.0277 17.1169 27.433 22.2389 22.9467 24.8028L23.9391 26.5393C29.1714 23.5491 31.4345 17.2739 28.6151 12.4392L26.8874 13.4467ZM20.9393 19.3925C20.0389 17.8484 20.6691 15.5757 22.7258 14.4004L21.7334 12.664C18.9309 14.2657 17.6322 17.6916 19.2115 20.4L20.9393 19.3925Z" fill="white"/>
</svg>
