<svg width="37" height="37" viewBox="0 0 37 37" fill="none" xmlns="http://www.w3.org/2000/svg">
<path d="M22.9688 9.28107C24.6256 9.28107 25.9688 7.93792 25.9688 6.28107C25.9688 4.62421 24.6256 3.28107 22.9688 3.28107C21.3119 3.28107 19.9688 4.62421 19.9688 6.28107C19.9688 7.93792 21.3119 9.28107 22.9688 9.28107Z" stroke="#00B894" stroke-width="2"/>
<path d="M16.9687 24.2814V21.8311C16.9687 21.0076 16.6029 20.2266 15.9703 19.6993L14.4756 18.4539C13.3979 17.5557 13.324 15.9261 14.316 14.9341L16.797 12.4532C17.5977 11.6524 17.3365 10.2961 16.2957 9.85005C14.3682 9.02398 12.1583 9.19414 10.38 10.3056L7.21875 12.2814" stroke="#00B894" stroke-width="2" stroke-linecap="round"/>
<path d="M10.9688 21.2811L10.4761 21.7737C9.60901 22.6408 9.17547 23.0743 8.62416 23.3028C8.07285 23.5311 7.45972 23.5311 6.23347 23.5311H4.96875" stroke="#00B894" stroke-width="2" stroke-linecap="round"/>
<path d="M19.2188 15.2811H23.7188" stroke="#00B894" stroke-width="2" stroke-linecap="round"/>
<path d="M29.702 33.2804H5.09901C4.19863 33.2804 3.46875 32.5505 3.46875 31.6502C3.46875 30.8582 4.0379 30.1808 4.81799 30.0443L29.0526 25.8032C31.3577 25.3999 33.4688 27.1736 33.4688 29.5136C33.4688 31.594 31.7823 33.2804 29.702 33.2804Z" stroke="#00B894" stroke-width="2" stroke-linejoin="round"/>
<path d="M33.6896 11.8842C34.2989 11.7623 34.694 11.1697 34.5721 10.5604C34.4503 9.95115 33.8576 9.55604 33.2483 9.67788L33.6896 11.8842ZM28.5815 26.698L30.5189 13.7815L28.2938 13.4477L26.3564 26.3641L28.5815 26.698ZM32.0056 12.221L33.6896 11.8842L33.2483 9.67788L31.5643 10.0147L32.0056 12.221ZM30.5189 13.7815C30.5983 13.2528 30.6457 12.9483 30.7042 12.7288C30.7306 12.6298 30.7517 12.5793 30.7637 12.5554C30.7693 12.5443 30.7726 12.5393 30.7733 12.5382C30.7741 12.5373 30.7741 12.5372 30.7745 12.5367L29.1455 10.9847C28.8049 11.3422 28.6363 11.7513 28.5304 12.1486C28.4317 12.5184 28.3657 12.9693 28.2938 13.4477L30.5189 13.7815ZM31.5643 10.0147C31.09 10.1096 30.6428 10.1973 30.2782 10.3138C29.8865 10.439 29.486 10.6272 29.1455 10.9847L30.7745 12.5367C30.7751 12.5362 30.7751 12.536 30.776 12.5354C30.7771 12.5345 30.7819 12.5309 30.7928 12.5249C30.8161 12.5118 30.8656 12.4882 30.9631 12.4571C31.1795 12.3879 31.4813 12.3258 32.0056 12.221L31.5643 10.0147Z" fill="#00B894"/>
</svg>
