<svg width="33" height="32" viewBox="0 0 33 32" fill="none" xmlns="http://www.w3.org/2000/svg">
<path d="M16.5003 2.66666C23.8641 2.66666 29.8337 8.63619 29.8337 16C29.8337 23.3637 23.8641 29.3333 16.5003 29.3333C9.13653 29.3333 3.16699 23.3637 3.16699 16C3.16699 12.2701 4.69851 8.89798 7.16699 6.47808" stroke="white" stroke-width="2" stroke-linecap="round"/>
<path d="M7.16699 16C7.16699 21.1547 11.3457 25.3333 16.5003 25.3333C21.655 25.3333 25.8337 21.1547 25.8337 16C25.8337 10.8453 21.655 6.66666 16.5003 6.66666" stroke="white" stroke-width="2" stroke-linecap="round"/>
<path d="M16.5 21.3333C19.4455 21.3333 21.8333 18.9455 21.8333 16C21.8333 13.0545 19.4455 10.6667 16.5 10.6667" stroke="white" stroke-width="2" stroke-linecap="round"/>
</svg>
