<svg width="33" height="32" viewBox="0 0 33 32" fill="none" xmlns="http://www.w3.org/2000/svg">
<path d="M3.16699 16C3.16699 10.9717 3.16699 8.45754 4.72909 6.89544C6.29119 5.33334 8.80534 5.33334 13.8337 5.33334H19.167C24.1953 5.33334 26.7095 5.33334 28.2715 6.89544C29.8337 8.45754 29.8337 10.9717 29.8337 16V18.6667C29.8337 23.6949 29.8337 26.2092 28.2715 27.7712C26.7095 29.3333 24.1953 29.3333 19.167 29.3333H13.8337C8.80534 29.3333 6.29119 29.3333 4.72909 27.7712C3.16699 26.2092 3.16699 23.6949 3.16699 18.6667V16Z" stroke="white" stroke-width="2"/>
<path d="M9.83301 5.33334V3.33334" stroke="white" stroke-width="2" stroke-linecap="round"/>
<path d="M23.167 5.33334V3.33334" stroke="white" stroke-width="2" stroke-linecap="round"/>
<path d="M22.5 24C23.6046 24 24.5 23.1046 24.5 22C24.5 20.8954 23.6046 20 22.5 20C21.3954 20 20.5 20.8954 20.5 22C20.5 23.1046 21.3954 24 22.5 24Z" stroke="white" stroke-width="2"/>
<path d="M3.83301 12H29.1663" stroke="white" stroke-width="2" stroke-linecap="round"/>
</svg>
