<svg width="48" height="48" viewBox="0 0 48 48" fill="none" xmlns="http://www.w3.org/2000/svg">
<path d="M32 27H33.5C33.5 26.1716 32.8284 25.5 32 25.5V27ZM32 21V22.5C32.8284 22.5 33.5 21.8284 33.5 21H32ZM16 27V25.5C15.1716 25.5 14.5 26.1716 14.5 27H16ZM16 21H14.5C14.5 21.8284 15.1716 22.5 16 22.5V21ZM42.5 20V28H45.5V20H42.5ZM38 32.5C37.0476 32.5 36.4084 32.4992 35.9134 32.4654C35.432 32.4326 35.1976 32.3736 35.0432 32.3096L33.8952 35.0814C34.476 35.322 35.075 35.4152 35.7092 35.4584C36.33 35.5008 37.0886 35.5 38 35.5V32.5ZM30.5 27C30.5 27.922 30.4996 28.909 30.5398 29.7592C30.5598 30.1856 30.591 30.6028 30.6422 30.9778C30.6904 31.3308 30.7682 31.7412 30.9186 32.1048L33.6904 30.9568C33.694 30.9656 33.6832 30.9406 33.6658 30.8656C33.6494 30.7938 33.6318 30.697 33.6146 30.5718C33.5802 30.3194 33.5544 29.9994 33.5364 29.618C33.5004 28.8526 33.5 27.9418 33.5 27H30.5ZM35.0432 32.3096C34.4308 32.056 33.944 31.5692 33.6904 30.9568L30.9186 32.1048C31.4768 33.4524 32.5476 34.5232 33.8952 35.0814L35.0432 32.3096ZM42.5 28C42.5 28.9524 42.4992 29.5916 42.4654 30.0866C42.4326 30.568 42.3736 30.8024 42.3098 30.9568L45.0814 32.1048C45.322 31.524 45.4152 30.925 45.4584 30.2908C45.5008 29.67 45.5 28.9114 45.5 28H42.5ZM38 35.5C38.9114 35.5 39.67 35.5008 40.2908 35.4584C40.925 35.4152 41.524 35.322 42.1048 35.0814L40.9568 32.3096C40.8024 32.3736 40.568 32.4326 40.0866 32.4654C39.5916 32.4992 38.9524 32.5 38 32.5V35.5ZM42.3098 30.9568C42.056 31.5692 41.5692 32.056 40.9568 32.3096L42.1048 35.0814C43.4524 34.5232 44.5232 33.4524 45.0814 32.1048L42.3098 30.9568ZM38 15.5C38.9524 15.5 39.5916 15.5008 40.0866 15.5346C40.568 15.5674 40.8024 15.6264 40.9568 15.6903L42.1048 12.9187C41.524 12.6781 40.925 12.5848 40.2908 12.5415C39.67 12.4992 38.9114 12.5 38 12.5V15.5ZM45.5 20C45.5 19.0886 45.5008 18.33 45.4584 17.7093C45.4152 17.0751 45.322 16.476 45.0814 15.8952L42.3098 17.0433C42.3736 17.1976 42.4326 17.432 42.4654 17.9135C42.4992 18.4084 42.5 19.0476 42.5 20H45.5ZM40.9568 15.6903C41.5692 15.944 42.056 16.4307 42.3098 17.0433L45.0814 15.8952C44.5232 14.5476 43.4524 13.4769 42.1048 12.9187L40.9568 15.6903ZM38 12.5C37.0886 12.5 36.33 12.4992 35.7092 12.5415C35.075 12.5848 34.476 12.6781 33.8952 12.9187L35.0432 15.6903C35.1976 15.6264 35.432 15.5674 35.9134 15.5346C36.4084 15.5008 37.0476 15.5 38 15.5V12.5ZM33.5 21C33.5 20.0582 33.5004 19.1474 33.5364 18.382C33.5544 18.0005 33.5802 17.6805 33.6146 17.4281C33.6318 17.3029 33.6494 17.2061 33.6658 17.1345C33.6832 17.0594 33.694 17.0343 33.6904 17.0433L30.9186 15.8952C30.7682 16.2587 30.6904 16.6691 30.6422 17.0223C30.591 17.3971 30.5598 17.8144 30.5398 18.2408C30.4996 19.091 30.5 20.078 30.5 21H33.5ZM33.8952 12.9187C32.5476 13.4769 31.4768 14.5476 30.9186 15.8952L33.6904 17.0433C33.944 16.4307 34.4308 15.944 35.0432 15.6903L33.8952 12.9187ZM5.5 28V20H2.5V28H5.5ZM10 32.5C9.0476 32.5 8.40842 32.4992 7.91348 32.4654C7.43202 32.4326 7.1976 32.3736 7.0433 32.3096L5.89524 35.0814C6.47602 35.322 7.07508 35.4152 7.70928 35.4584C8.33 35.5008 9.08864 35.5 10 35.5V32.5ZM2.5 28C2.5 28.9114 2.49918 29.67 2.54154 30.2908C2.58482 30.925 2.6781 31.524 2.91866 32.1048L5.6903 30.9568C5.62638 30.8024 5.56744 30.568 5.53458 30.0866C5.50082 29.5916 5.5 28.9524 5.5 28H2.5ZM7.0433 32.3096C6.43072 32.056 5.94404 31.5692 5.6903 30.9568L2.91866 32.1048C3.47688 33.4524 4.54758 34.5232 5.89524 35.0814L7.0433 32.3096ZM14.5 27C14.5 27.9418 14.4997 28.8526 14.4636 29.618C14.4456 29.9994 14.4198 30.3194 14.3853 30.5718C14.3682 30.697 14.3506 30.7938 14.3341 30.8656C14.3169 30.9406 14.306 30.9656 14.3097 30.9568L17.0813 32.1048C17.2319 31.7412 17.3095 31.3308 17.3578 30.9778C17.4089 30.6028 17.4402 30.1856 17.4603 29.7592C17.5003 28.909 17.5 27.922 17.5 27H14.5ZM10 35.5C10.9114 35.5 11.67 35.5008 12.2907 35.4584C12.9249 35.4152 13.524 35.322 14.1048 35.0814L12.9567 32.3096C12.8024 32.3736 12.568 32.4326 12.0865 32.4654C11.5916 32.4992 10.9524 32.5 10 32.5V35.5ZM14.3097 30.9568C14.056 31.5692 13.5693 32.056 12.9567 32.3096L14.1048 35.0814C15.4524 34.5232 16.5231 33.4524 17.0813 32.1048L14.3097 30.9568ZM10 15.5C10.9524 15.5 11.5916 15.5008 12.0865 15.5346C12.568 15.5674 12.8024 15.6264 12.9567 15.6903L14.1048 12.9187C13.524 12.6781 12.9249 12.5848 12.2907 12.5415C11.67 12.4992 10.9114 12.5 10 12.5V15.5ZM17.5 21C17.5 20.078 17.5003 19.091 17.4603 18.2408C17.4402 17.8144 17.4089 17.3971 17.3578 17.0223C17.3095 16.6691 17.2319 16.2587 17.0813 15.8952L14.3097 17.0433C14.306 17.0343 14.3169 17.0594 14.3341 17.1345C14.3506 17.2061 14.3682 17.3029 14.3853 17.4281C14.4198 17.6805 14.4456 18.0005 14.4636 18.382C14.4997 19.1474 14.5 20.0582 14.5 21H17.5ZM12.9567 15.6903C13.5693 15.944 14.056 16.4307 14.3097 17.0433L17.0813 15.8952C16.5231 14.5476 15.4524 13.4769 14.1048 12.9187L12.9567 15.6903ZM10 12.5C9.08864 12.5 8.33 12.4992 7.70928 12.5415C7.07508 12.5848 6.47602 12.6781 5.89524 12.9187L7.0433 15.6903C7.1976 15.6264 7.43202 15.5674 7.91348 15.5346C8.40842 15.5008 9.0476 15.5 10 15.5V12.5ZM5.5 20C5.5 19.0476 5.50082 18.4084 5.53458 17.9135C5.56744 17.432 5.62638 17.1976 5.6903 17.0433L2.91866 15.8952C2.6781 16.476 2.58482 17.0751 2.54154 17.7093C2.49918 18.33 2.5 19.0886 2.5 20H5.5ZM5.89524 12.9187C4.54758 13.4769 3.47688 14.5476 2.91866 15.8952L5.6903 17.0433C5.94404 16.4307 6.43072 15.944 7.0433 15.6903L5.89524 12.9187ZM16 22.5H32V19.5H16V22.5ZM32 25.5H16V28.5H32V25.5Z" fill="#E777F5"/>
</svg>
