<svg width="33" height="32" viewBox="0 0 33 32" fill="none" xmlns="http://www.w3.org/2000/svg">
<path d="M16.5003 13.2013L15.7742 13.8888C15.963 14.0883 16.2257 14.2013 16.5003 14.2013C16.775 14.2013 17.0377 14.0883 17.2265 13.8888L16.5003 13.2013ZM15.5053 19.6915C14.6617 19.0155 13.8437 18.4319 13.1881 17.6815C12.5667 16.9701 12.167 16.1844 12.167 15.1728H10.167C10.167 16.7977 10.8392 18.0327 11.6819 18.9973C12.4905 19.9229 13.5289 20.6705 14.2546 21.2521L15.5053 19.6915ZM12.167 15.1728C12.167 14.2196 12.6959 13.4611 13.3551 13.1547C13.9466 12.8799 14.8285 12.8899 15.7742 13.8888L17.2265 12.5137C15.7723 10.9779 13.9875 10.6555 12.5123 11.341C11.1048 11.995 10.167 13.4895 10.167 15.1728H12.167ZM14.2546 21.2521C14.5222 21.4665 14.8477 21.7271 15.1871 21.9287C15.5257 22.1299 15.9757 22.3333 16.5003 22.3333V20.3333C16.4917 20.3333 16.4083 20.3279 16.2085 20.2092C16.0094 20.0909 15.7914 19.9208 15.5053 19.6915L14.2546 21.2521ZM18.7461 21.2521C19.4718 20.6705 20.5102 19.9229 21.3187 18.9973C22.1615 18.0327 22.8337 16.7977 22.8337 15.1728H20.8337C20.8337 16.1844 20.4339 16.9701 19.8126 17.6815C19.157 18.4319 18.339 19.0155 17.4954 19.6915L18.7461 21.2521ZM22.8337 15.1728C22.8337 13.4895 21.8959 11.995 20.4883 11.341C19.0131 10.6555 17.2283 10.9779 15.7742 12.5137L17.2265 13.8888C18.1722 12.8899 19.0541 12.8799 19.6455 13.1547C20.3047 13.4611 20.8337 14.2196 20.8337 15.1728H22.8337ZM17.4954 19.6915C17.2093 19.9208 16.9913 20.0909 16.7922 20.2092C16.5923 20.3279 16.509 20.3333 16.5003 20.3333V22.3333C17.025 22.3333 17.475 22.1299 17.8135 21.9287C18.153 21.7271 18.4785 21.4665 18.7461 21.2521L17.4954 19.6915Z" fill="white"/>
<path d="M16.5 2.66663V5.33329" stroke="white" stroke-width="2" stroke-linecap="round"/>
<path d="M16.5 26.6666V29.3333" stroke="white" stroke-width="2" stroke-linecap="round"/>
<path d="M3.16699 16H5.83366" stroke="white" stroke-width="2" stroke-linecap="round"/>
<path d="M27.167 16H29.8337" stroke="white" stroke-width="2" stroke-linecap="round"/>
<path d="M8.5 24.0001L8.9574 23.5427" stroke="white" stroke-width="2" stroke-linecap="round"/>
<path d="M24.042 8.45768L24.4997 8" stroke="white" stroke-width="2" stroke-linecap="round"/>
<path d="M24.5003 24.0001L24.043 23.5427" stroke="white" stroke-width="2" stroke-linecap="round"/>
<path d="M8.95768 8.45768L8.5 8" stroke="white" stroke-width="2" stroke-linecap="round"/>
</svg>
