<svg width="33" height="32" viewBox="0 0 33 32" fill="none" xmlns="http://www.w3.org/2000/svg">
<path d="M3.16699 16.0348C3.16699 22.8964 8.32316 28.5506 14.9627 29.315C15.9425 29.4278 16.8921 29.0101 17.5894 28.311C18.4607 27.4374 18.4607 26.0212 17.5894 25.1476C16.8921 24.4485 16.3235 23.4054 16.8495 22.569C18.9517 19.2256 29.8337 26.904 29.8337 16.0348C29.8337 8.65175 23.8641 2.66663 16.5003 2.66663C9.13653 2.66663 3.16699 8.65175 3.16699 16.0348Z" stroke="white" stroke-width="2"/>
<path d="M23.833 16.3334C24.3853 16.3334 24.833 15.8857 24.833 15.3334C24.833 14.7811 24.3853 14.3334 23.833 14.3334C23.2807 14.3334 22.833 14.7811 22.833 15.3334C22.833 15.8857 23.2807 16.3334 23.833 16.3334Z" stroke="white" stroke-width="2"/>
<path d="M9.16699 16.3334C9.71928 16.3334 10.167 15.8857 10.167 15.3334C10.167 14.7811 9.71928 14.3334 9.16699 14.3334C8.61471 14.3334 8.16699 14.7811 8.16699 15.3334C8.16699 15.8857 8.61471 16.3334 9.16699 16.3334Z" stroke="white" stroke-width="2"/>
<path d="M14.2803 9.33301C14.2803 9.88529 13.8326 10.333 13.2803 10.333C12.728 10.333 12.2803 9.88529 12.2803 9.33301C12.2803 8.78071 12.728 8.33301 13.2803 8.33301C13.8326 8.33301 14.2803 8.78071 14.2803 9.33301Z" stroke="white" stroke-width="2"/>
<path d="M20.833 9.33337C20.833 9.88565 20.3853 10.3334 19.833 10.3334C19.2807 10.3334 18.833 9.88565 18.833 9.33337C18.833 8.78109 19.2807 8.33337 19.833 8.33337C20.3853 8.33337 20.833 8.78109 20.833 9.33337Z" stroke="white" stroke-width="2"/>
</svg>
