<svg width="24" height="25" viewBox="0 0 24 25" fill="none" xmlns="http://www.w3.org/2000/svg">
<path d="M17.4975 18.9851L20.6281 9.59373C21.8764 5.84874 22.5006 3.97624 21.5122 2.98782C20.5237 1.99939 18.6511 2.62356 14.906 3.87189L5.57477 6.98218C3.49295 7.6761 2.45203 8.02305 2.13608 8.78637C2.06182 8.96577 2.01692 9.15596 2.00311 9.34963C1.94433 10.1737 2.72018 10.9495 4.27188 12.5011L4.55451 12.7837C4.80921 13.0384 4.93655 13.1658 5.03282 13.3075C5.22269 13.5871 5.33046 13.9143 5.34393 14.2519C5.35076 14.4232 5.32403 14.6013 5.27057 14.9574C5.07488 16.2612 4.97703 16.9131 5.0923 17.4147C5.32205 18.4146 6.09599 19.1995 7.09257 19.4433C7.59255 19.5656 8.24576 19.477 9.5522 19.2997L9.62363 19.29C9.99191 19.24 10.1761 19.215 10.3529 19.2257C10.6738 19.245 10.9838 19.3496 11.251 19.5285C11.3981 19.6271 11.5295 19.7585 11.7923 20.0213L12.0436 20.2725C13.5539 21.7828 14.309 22.5379 15.1101 22.4985C15.3309 22.4877 15.5479 22.4365 15.7503 22.3474C16.4844 22.0244 16.8221 21.0113 17.4975 18.9851Z" stroke="white" stroke-width="2"/>
<path d="M6 18.5L21 3.5" stroke="white" stroke-width="2" stroke-linecap="round"/>
</svg>
