<svg width="32" height="32" viewBox="0 0 32 32" fill="none" xmlns="http://www.w3.org/2000/svg">
<path d="M14.4744 18.8928C14.8656 18.5028 14.8666 17.8697 14.4766 17.4785C14.0867 17.0874 13.4535 17.0865 13.0624 17.4764L14.4744 18.8928ZM7.43084 15.3749L8.13795 14.6678L8.1369 14.6668L7.43084 15.3749ZM13.2259 9.89591C13.6903 10.1948 14.3091 10.0606 14.608 9.59623C14.9068 9.13181 14.7727 8.51303 14.3083 8.21412L13.2259 9.89591ZM16.6664 24.6666L15.9593 25.3737C15.9748 25.3892 15.9907 25.4041 16.0072 25.4185L16.6664 24.6666ZM23.7648 17.6425C23.4647 17.1789 22.8456 17.0464 22.382 17.3465C21.9184 17.6468 21.7859 18.2658 22.086 18.7294L23.7648 17.6425ZM17.3636 25.2778L18.0696 24.5697L18.047 24.5472L18.0228 24.526L17.3636 25.2778ZM26.3516 13.3553L18.5557 21.1277L19.9679 22.5441L27.7637 14.7717L26.3516 13.3553ZM12.6433 21.1277L10.8122 19.3021L9.40011 20.7184L11.2312 22.5441L12.6433 21.1277ZM10.8122 13.4158L18.608 5.64341L17.1959 4.22708L9.40011 11.9995L10.8122 13.4158ZM23.3953 3.66663H24.1539V1.66663H23.3953V3.66663ZM28.3331 7.83032V8.58653H30.3331V7.83032H28.3331ZM24.1539 3.66663C25.4028 3.66663 26.2392 3.66873 26.8625 3.75229C27.4573 3.83203 27.7061 3.96913 27.8685 4.131L29.2807 2.71467C28.6845 2.12032 27.9437 1.87933 27.1283 1.77001C26.3412 1.66452 25.3464 1.66663 24.1539 1.66663V3.66663ZM30.3331 7.83032C30.3331 6.64159 30.3352 5.64913 30.2293 4.86369C30.1195 4.04919 29.8772 3.30941 29.2807 2.71467L27.8685 4.131C28.0305 4.29245 28.1675 4.53933 28.2472 5.13097C28.3309 5.75169 28.3331 6.58488 28.3331 7.83032H30.3331ZM10.8122 19.3021C9.92895 18.4214 9.33931 17.8306 8.95808 17.3325C8.59443 16.8573 8.51654 16.5862 8.51654 16.3589H6.51654C6.51654 17.2012 6.87026 17.8952 7.3698 18.548C7.85179 19.1777 8.55695 19.8778 9.40011 20.7184L10.8122 19.3021ZM11.2312 22.5441C12.0745 23.3848 12.7766 24.0877 13.4082 24.5682C14.063 25.0662 14.7576 25.4177 15.5996 25.4177V23.4177C15.3688 23.4177 15.0956 23.3389 14.619 22.9764C14.1192 22.5962 13.5265 22.0082 12.6433 21.1277L11.2312 22.5441ZM27.7637 14.7717C28.8284 13.7101 29.5709 12.9948 29.9608 12.0564L28.1139 11.2891C27.9124 11.7741 27.5323 12.1782 26.3516 13.3553L27.7637 14.7717ZM28.3331 8.58653C28.3331 10.2513 28.3153 10.8044 28.1139 11.2891L29.9608 12.0564C30.3508 11.1177 30.3331 10.0877 30.3331 8.58653H28.3331ZM18.608 5.64341C19.7883 4.46663 20.194 4.08705 20.6816 3.88571L19.9181 2.03713C18.978 2.4254 18.2611 3.16516 17.1959 4.22708L18.608 5.64341ZM23.3953 1.66663C21.8889 1.66663 20.858 1.64901 19.9181 2.03713L20.6816 3.88571C21.1695 3.68424 21.7261 3.66663 23.3953 3.66663V1.66663ZM11.7278 21.6312L14.4744 18.8928L13.0624 17.4764L10.3157 20.2149L11.7278 21.6312ZM14.3083 8.21412L13.4693 7.67416L12.3869 9.35595L13.2259 9.89591L14.3083 8.21412ZM13.4693 7.67416C12.6407 7.14089 11.972 6.70964 11.3964 6.39949C10.8083 6.08257 10.2573 5.8578 9.64814 5.76777L9.35575 7.74628C9.64828 7.78952 9.96894 7.90217 10.4477 8.16015C10.939 8.42491 11.5325 8.80604 12.3869 9.35595L13.4693 7.67416ZM3.67264 11.4058C4.42339 10.6573 5.22864 9.85476 5.9523 9.1946C6.31386 8.86477 6.64311 8.58151 6.92554 8.36383C7.22346 8.13421 7.41243 8.02247 7.5022 7.98521L6.73572 6.13792C6.39274 6.28023 6.033 6.52663 5.70459 6.77975C5.3607 7.04481 4.98603 7.36891 4.60439 7.71705C3.84166 8.41285 3.00348 9.24877 2.26058 9.98943L3.67264 11.4058ZM9.64814 5.76777C8.66858 5.62301 7.66135 5.75387 6.73572 6.13792L7.5022 7.98521C8.1031 7.73589 8.74488 7.65601 9.35575 7.74628L9.64814 5.76777ZM2.94403 13.2976L3.44888 13.4977L4.18564 11.6383L3.68079 11.4383L2.94403 13.2976ZM5.44383 14.806L6.7248 16.0832L8.1369 14.6668L6.85591 13.3897L5.44383 14.806ZM3.44888 13.4977C3.53372 13.5313 3.5677 13.5448 3.60062 13.5584L4.3625 11.7091C4.31419 11.6892 4.26571 11.6701 4.18564 11.6383L3.44888 13.4977ZM6.85591 13.3897C6.795 13.3289 6.75811 13.2921 6.72063 13.2557L5.3279 14.6912C5.35342 14.7158 5.37927 14.7416 5.44383 14.806L6.85591 13.3897ZM3.60062 13.5584C4.2435 13.8232 4.82968 14.2077 5.3279 14.6912L6.72063 13.2557C6.0401 12.5954 5.23976 12.0706 4.3625 11.7091L3.60062 13.5584ZM2.26058 9.98943C1.22885 11.018 1.59263 12.7621 2.94403 13.2976L3.68079 11.4383C3.67486 11.4359 3.67244 11.4342 3.67207 11.4339C3.67224 11.4341 3.67156 11.4335 3.67207 11.4339C3.67144 11.4331 3.66835 11.4291 3.6671 11.423C3.66584 11.4169 3.66667 11.4133 3.66679 11.4128C3.66663 11.4131 3.6668 11.4128 3.66679 11.4128C3.66687 11.4127 3.66832 11.4101 3.67264 11.4058L2.26058 9.98943ZM22.086 18.7294L22.6276 19.566L24.3064 18.4789L23.7648 17.6425L22.086 18.7294ZM20.5719 28.2458L20.4599 28.3576L21.8719 29.7738L21.984 29.6622L20.5719 28.2458ZM22.6276 19.566C23.1792 20.4178 23.5615 21.0093 23.8268 21.499C24.0855 21.9761 24.1982 22.295 24.2412 22.5853L26.2195 22.2912C26.129 21.6825 25.9031 21.1324 25.5851 20.5458C25.274 19.9718 24.8413 19.3049 24.3064 18.4789L22.6276 19.566ZM21.984 29.6622C22.7268 28.9216 23.5653 28.0858 24.2632 27.3254C24.6124 26.9449 24.9375 26.5713 25.2035 26.2284C25.4572 25.901 25.7047 25.542 25.8477 25.1993L24.0022 24.4289C23.9651 24.5177 23.8532 24.7057 23.6229 25.0028C23.4045 25.2844 23.1206 25.6126 22.7898 25.973C22.1276 26.6945 21.3227 27.4973 20.5719 28.2458L21.984 29.6622ZM24.2412 22.5853C24.3315 23.1926 24.2518 23.8309 24.0022 24.4289L25.8477 25.1993C26.2335 24.2753 26.365 23.2696 26.2195 22.2912L24.2412 22.5853ZM18.0228 24.526L17.3256 23.9148L16.0072 25.4185L16.7043 26.0298L18.0228 24.526ZM20.594 28.3958C20.3077 27.6778 20.1357 27.2417 19.9096 26.8294L18.1561 27.7913C18.3099 28.0716 18.4327 28.375 18.7362 29.1365L20.594 28.3958ZM16.6575 25.9861C17.2386 26.5654 17.4697 26.7982 17.6671 27.05L19.2412 25.8164C18.9512 25.4462 18.6177 25.1161 18.0696 24.5697L16.6575 25.9861ZM19.9096 26.8294C19.7148 26.4741 19.4912 26.1353 19.2412 25.8164L17.6671 27.05C17.85 27.2834 18.0136 27.5314 18.1561 27.7913L19.9096 26.8294ZM22.218 11.9995C21.5971 12.6187 20.5889 12.6187 19.9679 11.9995L18.5557 13.4158C19.9573 14.8132 22.2285 14.8132 23.6301 13.4158L22.218 11.9995ZM19.9679 11.9995C19.3485 11.382 19.3485 10.3821 19.9679 9.76455L18.5557 8.34821C17.1525 9.74725 17.1525 12.0168 18.5557 13.4158L19.9679 11.9995ZM19.9679 9.76455C20.5889 9.14539 21.5971 9.14539 22.218 9.76455L23.6301 8.34821C22.2285 6.95083 19.9573 6.95083 18.5557 8.34821L19.9679 9.76455ZM22.218 9.76455C22.8375 10.3821 22.8375 11.382 22.218 11.9995L23.6301 13.4158C25.0333 12.0168 25.0333 9.74725 23.6301 8.34821L22.218 9.76455ZM20.4599 28.3576C20.4683 28.3492 20.4823 28.3405 20.4977 28.3362C20.5108 28.3325 20.5207 28.3329 20.5276 28.3344C20.5344 28.3357 20.5459 28.3394 20.5596 28.3504C20.5752 28.3629 20.5877 28.3802 20.594 28.3958L18.7362 29.1365C19.2482 30.4206 20.912 30.7309 21.8719 29.7738L20.4599 28.3576ZM18.5557 21.1277C17.874 21.8074 17.3611 22.3181 16.9203 22.6988C16.4779 23.0808 16.1798 23.2672 15.9459 23.3533L16.6371 25.2301C17.2076 25.02 17.7222 24.6489 18.2275 24.2124C18.7347 23.7744 19.3047 23.2053 19.9679 22.5441L18.5557 21.1277ZM15.9459 23.3533C15.8227 23.3988 15.7127 23.4177 15.5996 23.4177V25.4177C15.9605 25.4177 16.304 25.3528 16.6371 25.2301L15.9459 23.3533ZM17.3735 23.9596L16.9985 23.5846L15.5844 24.9988L15.9593 25.3737L17.3735 23.9596ZM9.40011 11.9995C8.7528 12.6449 8.19394 13.2013 7.76004 13.6965C7.32795 14.1897 6.95839 14.6889 6.73804 15.2369L8.59363 15.983C8.68827 15.7477 8.88292 15.4498 9.26427 15.0146C9.64382 14.5814 10.1476 14.0784 10.8122 13.4158L9.40011 11.9995ZM6.73804 15.2369C6.59418 15.5946 6.51654 15.9657 6.51654 16.3589H8.51654C8.51654 16.2388 8.53843 16.1202 8.59363 15.983L6.73804 15.2369ZM6.72374 16.0821L6.95872 16.317L8.37294 14.9028L8.13795 14.6678L6.72374 16.0821Z" fill="white"/>
</svg>
