<svg width="166" height="35" viewBox="0 0 166 35" fill="none" xmlns="http://www.w3.org/2000/svg">
<path d="M0.408 34V1.984H16.008C19.624 1.984 22.456 2.832 24.504 4.528C26.552 6.192 27.576 8.736 27.576 12.16C27.576 13.568 27.288 14.96 26.712 16.336C26.136 17.68 25.288 18.848 24.168 19.84C23.048 20.8 21.64 21.424 19.944 21.712L19.464 19.072L29.208 34H19.32L11.304 20.032L14.76 22.96H8.184V34H0.408ZM8.184 17.248H14.712C16.088 17.248 17.176 16.88 17.976 16.144C18.776 15.408 19.176 14.192 19.176 12.496C19.176 11.024 18.808 9.904 18.072 9.136C17.368 8.368 16.36 7.984 15.048 7.984H8.184V17.248ZM34.1992 34V0.111999H41.3993V14.512L38.3753 12.88C39.6553 11.76 41.1593 10.848 42.8873 10.144C44.6473 9.408 46.4393 9.04 48.2633 9.04C50.0233 9.04 51.5753 9.328 52.9193 9.904C54.2633 10.48 55.3033 11.424 56.0393 12.736C56.8073 14.016 57.1913 15.792 57.1913 18.064V34H50.0393V19.552C50.0393 17.952 49.6393 16.8 48.8393 16.096C48.0713 15.36 46.9353 14.992 45.4313 14.992C44.6633 14.992 43.8953 15.104 43.1273 15.328C42.3913 15.52 41.8153 15.776 41.3993 16.096L41.3033 34H34.1992ZM74.535 34.72C72.103 34.72 69.943 34.224 68.055 33.232C66.199 32.208 64.743 30.768 63.687 28.912C62.663 27.024 62.151 24.784 62.151 22.192C62.151 17.968 63.191 14.704 65.271 12.4C67.383 10.064 70.391 8.896 74.295 8.896C76.983 8.896 79.143 9.472 80.775 10.624C82.439 11.776 83.655 13.456 84.423 15.664C85.191 17.872 85.559 20.56 85.527 23.728H67.047L66.279 19.168H79.623L78.567 21.424C78.535 18.832 78.167 17.008 77.463 15.952C76.759 14.896 75.607 14.368 74.007 14.368C73.111 14.368 72.295 14.592 71.559 15.04C70.855 15.488 70.295 16.24 69.879 17.296C69.495 18.32 69.303 19.744 69.303 21.568C69.303 23.872 69.847 25.648 70.935 26.896C72.055 28.144 73.831 28.768 76.263 28.768C77.159 28.768 78.039 28.672 78.903 28.48C79.799 28.256 80.631 28 81.399 27.712C82.167 27.424 82.823 27.168 83.367 26.944V33.088C82.215 33.568 80.919 33.952 79.479 34.24C78.071 34.56 76.423 34.72 74.535 34.72ZM99.8561 34.72C98.3841 34.72 96.9921 34.576 95.6801 34.288C94.4001 34.032 93.2641 33.6 92.2721 32.992C91.3121 32.352 90.5601 31.504 90.0161 30.448C89.4721 29.36 89.2001 28.016 89.2001 26.416C89.2001 24.912 89.5041 23.6 90.1121 22.48C90.7521 21.36 91.7121 20.496 92.9921 19.888C94.2721 19.28 95.8881 18.976 97.8401 18.976C98.9281 18.976 99.9841 19.088 101.008 19.312C102.032 19.536 102.944 19.84 103.744 20.224C104.576 20.608 105.232 21.024 105.712 21.472L106 24.928C105.36 24.544 104.592 24.24 103.696 24.016C102.8 23.792 101.84 23.68 100.816 23.68C99.2481 23.68 98.0961 23.92 97.3601 24.4C96.6561 24.848 96.3041 25.568 96.3041 26.56C96.3041 27.168 96.4801 27.712 96.8321 28.192C97.1841 28.672 97.6481 29.04 98.2241 29.296C98.8321 29.552 99.4561 29.68 100.096 29.68C101.728 29.68 102.864 29.568 103.504 29.344C104.176 29.12 104.512 28.672 104.512 28V19.072C104.512 17.6 104.032 16.544 103.072 15.904C102.144 15.232 100.816 14.896 99.0881 14.896C97.6801 14.896 96.2561 15.152 94.8161 15.664C93.4081 16.144 92.2561 16.736 91.3601 17.44V11.104C92.1921 10.592 93.4721 10.112 95.2001 9.664C96.9601 9.216 98.9281 8.992 101.104 8.992C101.872 8.992 102.72 9.056 103.648 9.184C104.576 9.312 105.504 9.552 106.432 9.904C107.36 10.224 108.208 10.704 108.976 11.344C109.776 11.984 110.416 12.8 110.896 13.792C111.376 14.784 111.616 16.016 111.616 17.488L111.568 28.96C111.568 30.336 111.104 31.456 110.176 32.32C109.248 33.152 107.904 33.76 106.144 34.144C104.416 34.528 102.32 34.72 99.8561 34.72ZM117.629 34V27.232H124.589V34H117.629ZM139.934 34.72C138.462 34.72 137.07 34.576 135.758 34.288C134.478 34.032 133.342 33.6 132.35 32.992C131.39 32.352 130.638 31.504 130.094 30.448C129.55 29.36 129.278 28.016 129.278 26.416C129.278 24.912 129.582 23.6 130.19 22.48C130.83 21.36 131.79 20.496 133.07 19.888C134.35 19.28 135.966 18.976 137.918 18.976C139.006 18.976 140.062 19.088 141.086 19.312C142.11 19.536 143.022 19.84 143.822 20.224C144.654 20.608 145.31 21.024 145.79 21.472L146.078 24.928C145.438 24.544 144.67 24.24 143.774 24.016C142.878 23.792 141.918 23.68 140.894 23.68C139.326 23.68 138.174 23.92 137.438 24.4C136.734 24.848 136.382 25.568 136.382 26.56C136.382 27.168 136.558 27.712 136.91 28.192C137.262 28.672 137.726 29.04 138.302 29.296C138.91 29.552 139.534 29.68 140.174 29.68C141.806 29.68 142.942 29.568 143.582 29.344C144.254 29.12 144.59 28.672 144.59 28V19.072C144.59 17.6 144.11 16.544 143.15 15.904C142.222 15.232 140.894 14.896 139.166 14.896C137.758 14.896 136.334 15.152 134.894 15.664C133.486 16.144 132.334 16.736 131.438 17.44V11.104C132.27 10.592 133.55 10.112 135.278 9.664C137.038 9.216 139.006 8.992 141.182 8.992C141.95 8.992 142.798 9.056 143.726 9.184C144.654 9.312 145.582 9.552 146.51 9.904C147.438 10.224 148.286 10.704 149.054 11.344C149.854 11.984 150.494 12.8 150.974 13.792C151.454 14.784 151.694 16.016 151.694 17.488L151.646 28.96C151.646 30.336 151.182 31.456 150.254 32.32C149.326 33.152 147.982 33.76 146.222 34.144C144.494 34.528 142.398 34.72 139.934 34.72ZM158.187 34V10.048H165.339L165.387 34H158.187ZM158.043 6.4V0.879997H165.435V6.4H158.043Z" fill="#FF6F61"/>
</svg>
