<svg width="442" height="527" viewBox="0 0 442 527" fill="none" xmlns="http://www.w3.org/2000/svg">
<path d="M241 27.6972C241 38.5571 240.843 48.4495 236.645 55.8803C231.922 64.2413 222.869 69 218.258 69C213.647 69 204.902 64.2413 200.306 55.8803C196.223 48.4495 196 38.5571 196 27.6972C196 7.28873 206.767 0 218.258 0C229.749 0 241 7.28873 241 27.6972Z" fill="#0D1B3C"/>
<path d="M178 88C178 92.9706 173.971 97 169 97C164.03 97 160 92.9706 160 88C160 83.0294 164.03 79 169 79C173.971 79 178 83.0294 178 88Z" fill="#0D1B3C"/>
<path d="M210 353C210 358.523 205.523 363 200 363C194.477 363 190 358.523 190 353C190 347.477 194.477 343 200 343C205.523 343 210 347.477 210 353Z" fill="#0D1B3C"/>
<path d="M202.5 56.5H234C234 56.5 231.808 62.5133 232 68.5C232.166 73.6856 237.5 81 237.5 81C228.208 84.7671 223.583 86.6421 219 86.6249V173.5V195L218.5 262.5L217 261.5C217 261.5 216 278.358 216 297C216 315.642 210 351 210 351H187.5C187.5 351 182 341.737 173.5 302.5C166.793 278.105 164.534 251.968 166 245.5C168.948 232.5 169 227.5 169 227.5L175 211C176.5 206.5 186.37 191.408 187 187C187.5 183.5 189.5 177.5 189 173.5C189 173.5 190.5 153 185.5 146.5C183.411 143.784 177.514 135.5 178.5 121.5C177.514 111.013 175 98 175 98L170.622 87.4916L163 90L170 79H184C184 79 193.999 78.313 197.5 78C198.654 77.8969 199.605 77.7466 200.356 77.5937L202.5 77C202.5 77 205.925 73.6248 206 68.5C206.088 62.5108 202.5 56.5 202.5 56.5Z" fill="#0D1B3C"/>
<path d="M208 473.5H194.5C188.5 437 182.5 431.5 182.5 407C182 388.5 187.5 357.5 187.5 357.5C187.5 357.5 186.891 354.16 186.5 352.5C186.109 350.84 186.5 346.5 186.5 346.5L210 346C210 346 210.098 350.84 210 352.5C209.903 354.16 209.5 356.5 209.5 356.5C209.5 356.5 214 395 213 402.5C212.024 430.422 208 473.5 208 473.5Z" fill="#0D1B3C"/>
<path d="M193.5 520.5C191.401 517.419 192.53 504 192.53 504C192.53 504 192.119 497.552 192.53 491.5C192.77 487.973 193.5 482 193.5 482C193.5 482 193.155 479.223 193.5 477.5C194 475 194.5 473.5 194.5 473.5H208C208 473.5 209.195 475.86 209.5 477.5C209.822 479.228 209.5 482 209.5 482L211 504.5L212.5 518.5C212.5 518.5 212.23 523.989 212 525C211.418 527.564 207.405 525.441 205.5 526C199.678 527.709 194.082 521.355 193.5 520.5Z" fill="#0D1B3C"/>
<path d="M256.307 95C256.307 99.9706 260.336 104 265.307 104C270.278 104 274.307 99.9706 274.307 95C274.307 90.0294 270.278 86 265.307 86C260.336 86 256.307 90.0294 256.307 95Z" fill="#0D1B3C"/>
<path d="M257.5 88C257.5 92.9706 261.53 97 266.5 97C271.471 97 275.5 92.9706 275.5 88C275.5 83.0294 271.471 79 266.5 79C261.53 79 257.5 83.0294 257.5 88Z" fill="#0D1B3C"/>
<path d="M234 56H204C204 56 206.192 62.5133 206 68.5C205.834 73.6856 202.5 80.5 202.5 80.5C211.792 84.2671 211.917 86.6421 216.5 86.6249V173.5V195L217 262.5L222 261.5L266 226.5L260.5 211C259 206.5 249.13 191.408 248.5 187C248 183.5 246.5 177.5 247 173.5C247 173.5 245 153 250 146.5C252.089 143.784 257.986 135.5 257 121.5C257.986 111.013 260.5 98 260.5 98L264.878 87.4916L272.5 90L265.5 79L251.5 78C251.5 78 241.501 78.313 238 78C236.847 77.8969 235.895 77.7466 235.144 77.5937L233 77C233 77 230.575 73.6248 230.5 68.5C230.412 62.5108 234 56 234 56Z" fill="#0D1B3C"/>
<path d="M382.5 415C363.5 382.5 363.499 383.5 349.5 363C338.855 347.861 322.999 325.5 322.999 325.5C322.999 325.5 321.677 318.565 321 317C320.322 315.436 316.5 311 316.5 311L296 326.5C296 326.5 300.098 330.38 301.168 331.654C302.237 332.927 303.957 334.564 303.957 334.564C303.957 334.564 318.5 370 328.5 381L334.197 387.919C335.778 390.721 337.853 394.088 342.5 398C348 401.5 371 425.5 371 425.5C371 425.5 372.336 428.438 373 430C374.385 433.403 374.5 436.5 377 439C379.5 441.5 382.657 441.842 384.5 440C386.561 437.939 388.491 436.477 390 434.5L392.25 432.25L392.89 431.708C396.505 428.954 401.448 426.907 404.5 425C412.5 419.5 410.5 420.5 412.5 417C413.5 415 412.625 413.781 413 413.5C414.131 412.651 414.239 409.315 413.5 409.5C409.5 410.5 408.5 412.5 405.5 413.5C403.79 414.07 391.056 416.789 390 417C385 418 382.5 415 382.5 415Z" fill="#0D1B3C"/>
<path d="M249.479 83.2146L252.314 100.137L260.155 102.457C260.155 102.457 267.724 99.2543 270.721 99.1229C277.221 98.8379 307.372 85.978 307.372 85.978C307.372 85.978 315.26 84.1873 327.796 80.3206C331.32 80.0282 335.846 76.0692 335.735 75.5817C335.623 75.0943 333.715 63.581 333.715 63.581C333.742 63.318 327.528 65.1435 323.591 66.408C307.633 67.5717 291.721 71.1229 273.221 75.5818C254.735 80.0373 249.479 83.2146 249.479 83.2146Z" fill="#0D1B3C"/>
<path d="M324.992 66.4535L328.94 79.7033C328.94 79.7033 340.391 78.0911 353.721 71.6228C367.051 65.1545 375.334 60.9719 388.221 53.6228C391.221 52.1228 394.721 50.1228 394.721 50.1228L389.721 40.1228C389.721 40.1228 387.83 41.1987 386.721 41.6228C385.717 42.0068 384.545 42.5053 384.221 42.6228C373.138 46.6407 354.466 52.4298 343.383 56.4477C332.3 60.4656 324.992 66.4535 324.992 66.4535Z" fill="#0D1B3C"/>
<path d="M273 234C269.5 228 260.5 221.5 260.5 221.5L226.5 266L251.75 286.5C251.75 286.5 258.805 299.234 265.5 304C269.21 306.641 275.481 311 276.5 312C287.044 322.349 301.5 330.5 301.5 330.5L317.5 314C318.646 314.032 312.5 303 310 301C308.167 298.25 307.347 290.68 301.5 280C291.402 261.553 275.217 237.8 273 234Z" fill="#0D1B3C"/>
<path d="M259 473C261.391 435.43 260.826 436.749 260.663 411.926C260.288 393.423 259.624 366.019 259.624 366.019C259.624 366.019 261.474 359.531 261.785 357.855C262.097 356.179 261.285 350.355 261.285 350.355L235.785 351.355C235.785 351.355 236.493 357.202 236.669 358.855C236.845 360.508 236.669 363.355 236.669 363.355C236.669 363.355 230.134 399.646 232.285 414.355L234.236 425.326C234.461 428.345 234.896 431.994 236.285 436.855C238.893 442.83 243.591 475.777 243.591 475.777C243.591 475.777 243.058 478.96 242.736 480.627C241.986 484.223 241 487 241.285 489.855C242.5 493.5 245.595 493.763 247.361 494.059C249.127 494.354 251.705 494.265 254 493.5L255.192 493.202C255.827 493.085 256.538 493.008 257.304 492.965L259 492.919L264.5 493.5L274.322 494.286C275.372 494.397 276.284 494.476 277 494.5C281.5 494.5 283.386 494.286 287 492.5C288.947 491.399 289.532 491.024 290 491C291.413 490.928 294.576 488.331 292.5 487C290 486.5 289 487 287 486.5C285 486 282.809 486.138 278.5 484.5L270.905 481.335C270.905 481.335 270.904 481.335 270.904 481.335C268.875 480.458 267.182 479.727 266.5 479.5C264.385 478.795 259 473 259 473Z" fill="#0D1B3C"/>
<path d="M269.252 262.194C269.7 255.262 259.785 220.5 259.785 220.5L218.785 254.355L220.785 281.355C220.785 281.355 222.394 307.163 225.285 314.855C226.887 319.118 227.285 327.855 228.592 328.85C231.559 343.324 238.998 358.159 238.998 358.159L259.785 353.855C261.285 353.855 262.785 341.855 262.285 338.855C262.3 335.55 268.137 321.48 269.252 309.355C271.178 288.413 268.969 266.584 269.252 262.194Z" fill="#0D1B3C"/>
<path d="M56.4091 414.5C75.4091 382 75.4094 383 89.4091 362.5C100.054 347.361 115.909 325 115.909 325C115.909 325 117.231 318.065 117.909 316.5C118.587 314.936 122.409 310.5 122.409 310.5L142.909 326C142.909 326 138.81 329.88 137.741 331.154C136.672 332.427 134.952 334.064 134.952 334.064C134.952 334.064 120.409 369.5 110.409 380.5L104.712 387.419C103.131 390.221 101.055 393.588 96.4091 397.5C90.9091 401 67.9092 425 67.9092 425C67.9092 425 66.5732 427.938 65.9092 429.5C64.5233 432.903 64.4087 436 61.9088 438.5C59.4089 441 56.2513 441.342 54.4091 439.5C52.3475 437.439 50.4174 435.977 48.9091 434L46.659 431.75L46.0189 431.208C42.4033 428.454 37.4603 426.407 34.4088 424.5C26.4088 419 28.4088 420 26.4088 416.5C25.4088 414.5 26.2837 413.281 25.9088 413C24.7774 412.151 24.6698 408.815 25.4088 409C29.4088 410 30.4088 412 33.4088 413C35.1191 413.57 47.8528 416.289 48.9091 416.5C53.9091 417.5 56.4091 414.5 56.4091 414.5Z" fill="#0D1B3C"/>
<path d="M165.908 233.5C169.408 227.5 178.408 221 178.408 221L212.408 265.5L187.158 286C187.158 286 180.103 298.734 173.409 303.5C169.699 306.141 163.428 310.5 162.409 311.5C151.865 321.849 137.409 330 137.409 330L121.409 313.5C120.263 313.532 126.409 302.5 128.909 300.5C130.742 297.75 131.562 290.18 137.409 279.5C147.507 261.053 163.692 237.3 165.908 233.5Z" fill="#0D1B3C"/>
<path d="M392.721 32.6228C391.721 33.8728 389.721 40.1227 389.721 40.1227L393.221 50.1229C393.221 50.1229 398.721 50.6227 403.221 47.6229C406.471 45.4567 409.721 44.6229 411.221 40.6228C412.387 37.5147 412.721 36.1229 415.221 32.1228C416.153 30.6325 414.881 28.8728 414.721 27.1228C414.484 24.5285 414.072 20.6518 412.721 20.6228C411.67 20.6002 411.172 19.6734 410.221 20.1228C407.703 21.3135 405.721 25.6228 403.721 26.6228C401.296 29.3208 399.958 31.6425 399.721 31.1228C398.504 28.4514 403.721 25.6228 402.221 22.1228C401.864 21.2899 398.721 25.6228 397.221 26.6228C395.572 28.8166 393.282 31.9223 392.721 32.6228Z" fill="#0D1B3C"/>
<path d="M263 89.5L252 119.759C252 119.759 258.5 112.759 264.5 111.759C268.768 111.047 273.85 112.966 276.689 113.935C283.5 116.259 315 120.759 315 120.759C315 120.759 322.855 122.626 335.684 125.366C341 127.259 344.785 125.582 344.926 125.103C345.066 124.623 349.018 113.642 349.018 113.642C349.17 113.425 343.554 111.076 339.5 110.259C324.5 103.759 308.681 99.7379 290.357 94.6047C272.046 89.4753 263 89.5 263 89.5Z" fill="#0D1B3C"/>
<path d="M341 110.759L336.984 125.386C336.984 125.386 347.767 129.565 362.558 130.422C377.35 131.279 386.621 131.669 401.455 131.541C404.806 131.695 408.837 131.656 408.837 131.656L409.351 120.488C409.351 120.488 407.176 120.505 406 120.334C404.936 120.179 403.671 120.043 403.33 119.987C391.695 118.087 372.572 114.031 360.937 112.132C349.302 110.232 341 110.759 341 110.759Z" fill="#0D1B3C"/>
<path d="M415.5 117.312C410.381 117.312 405.5 120.759 405.5 120.759L402.225 127.925C402.225 127.925 405.837 131.647 411 133.259C414.728 134.423 414.245 134.259 418.5 134.259C422.5 134.259 422.318 134.831 427 134.259C428.744 134.046 434.847 130.89 435.5 129.259C436.5 126.759 440.327 124.827 439.5 123.759C438.856 122.927 439.947 121.215 439 120.759C436.49 119.55 429.135 123.2 427.1 122.274C423.477 122.085 419.745 121.269 420 120.759C421.312 118.133 427.877 120.679 429.655 117.312C430.078 116.511 424.732 116.792 423.012 116.255C420.269 116.352 417.5 117.312 415.5 117.312Z" fill="#0D1B3C"/>
<path d="M176.086 89.6848L189.994 119.759C189.994 119.759 183.494 112.759 177.494 111.759C173.226 111.047 168.144 112.966 165.305 113.935C158.494 116.259 126.994 120.759 126.994 120.759C126.994 120.759 119.139 122.626 106.31 125.366C100.994 127.259 97.2088 125.582 97.0683 125.103C96.9277 124.623 92.9763 113.642 92.9763 113.642C92.8245 113.425 98.4404 111.076 102.494 110.259C117.494 103.759 133.313 99.7379 151.638 94.6047C169.948 89.4753 176.086 89.6848 176.086 89.6848Z" fill="#0D1B3C"/>
<path d="M100.994 110.759L105.01 125.386C105.01 125.386 94.2274 129.565 79.4359 130.422C64.6443 131.279 55.373 131.669 40.5386 131.541C37.188 131.695 33.1571 131.656 33.1571 131.656L32.6431 120.488C32.6431 120.488 34.8183 120.505 35.9936 120.334C37.0577 120.179 38.3235 120.043 38.6638 119.987C50.2988 118.087 69.4219 114.031 81.0569 112.132C92.6919 110.232 100.994 110.759 100.994 110.759Z" fill="#0D1B3C"/>
<path d="M26.4942 117.312C31.6127 117.312 36.4942 120.759 36.4942 120.759L39.7687 127.925C39.7687 127.925 36.1566 131.647 30.9941 133.259C27.2664 134.423 27.7486 134.259 23.4941 134.259C19.4941 134.259 19.6764 134.831 14.9941 134.259C13.2498 134.046 7.14679 130.89 6.49414 129.259C5.49418 126.759 1.66742 124.827 2.49414 123.759C3.13774 122.927 2.04682 121.215 2.99412 120.759C5.50353 119.55 12.8592 123.2 14.8945 122.274C18.5174 122.085 22.2493 121.269 21.9941 120.759C20.6824 118.133 14.117 120.679 12.3393 117.312C11.9162 116.511 17.2616 116.792 18.9825 116.255C21.7255 116.352 24.4941 117.312 26.4942 117.312Z" fill="#0D1B3C"/>
<path d="M192.08 83.2146L189.245 100.137L181.404 102.457C181.404 102.457 173.835 99.2543 170.838 99.1229C164.338 98.8379 134.187 85.978 134.187 85.978C134.187 85.978 126.299 84.1873 113.763 80.3206C110.24 80.0282 105.713 76.0692 105.825 75.5817C105.936 75.0943 107.844 63.581 107.844 63.581C107.817 63.318 114.031 65.1435 117.969 66.408C133.926 67.5717 149.838 71.1229 168.338 75.5818C186.824 80.0373 192.08 83.2146 192.08 83.2146Z" fill="#0D1B3C"/>
<path d="M116.568 66.4535L112.62 79.7033C112.62 79.7033 101.168 78.0911 87.8381 71.6228C74.5083 65.1545 66.2248 60.9719 53.3381 53.6228C50.3381 52.1228 46.8381 50.1228 46.8381 50.1228L51.8381 40.1228C51.8381 40.1228 53.7287 41.1987 54.8381 41.6228C55.8425 42.0068 57.014 42.5053 57.3381 42.6228C68.4214 46.6407 87.093 52.4298 98.1763 56.4477C109.259 60.4656 116.568 66.4535 116.568 66.4535Z" fill="#0D1B3C"/>
<path d="M48.838 32.6228C49.8381 33.8728 51.838 40.1227 51.838 40.1227L48.3381 50.1229C48.3381 50.1229 42.8381 50.6227 38.3381 47.6229C35.0887 45.4567 31.8381 44.6229 30.3381 40.6228C29.1725 37.5147 28.8381 36.1229 26.3381 32.1228C25.4067 30.6325 26.6779 28.8728 26.8381 27.1228C27.0755 24.5285 27.4877 20.6518 28.8381 20.6228C29.8893 20.6002 30.3875 19.6734 31.3381 20.1228C33.8563 21.3135 35.8381 25.6228 37.8381 26.6228C40.2633 29.3208 41.6014 31.6425 41.8381 31.1228C43.0548 28.4514 37.838 25.6228 39.338 22.1228C39.695 21.2899 42.8381 25.6228 44.3381 26.6228C45.9875 28.8166 48.2776 31.9223 48.838 32.6228Z" fill="#0D1B3C"/>
<path d="M242.725 29.4564C241.246 28.4295 240.225 29.4564 240.225 29.4564C240.225 29.4564 234.106 43.6651 238.725 44.4563C243.3 45.2399 246.537 32.1038 242.725 29.4564Z" fill="#0D1B3C"/>
<path d="M194.683 28.4564C196.162 27.4295 197.183 28.4564 197.183 28.4564C197.183 28.4564 203.302 42.6651 198.683 43.4563C194.108 44.2399 190.871 31.1038 194.683 28.4564Z" fill="#0D1B3C"/>
</svg>
