<svg width="18" height="18" viewBox="0 0 18 18" fill="none" xmlns="http://www.w3.org/2000/svg">
<path d="M17.9999 1.575C17.9999 1.17718 17.8419 0.795644 17.5606 0.51434C17.2793 0.233035 16.8977 0.0750003 16.4999 0.0750003L4.49991 0C4.10208 0 3.72055 0.158036 3.43925 0.43934C3.15794 0.720645 2.99991 1.10218 2.99991 1.5C2.99991 1.89782 3.15794 2.27936 3.43925 2.56066C3.72055 2.84196 4.10208 3 4.49991 3H12.8399L0.434908 15.435C0.294316 15.5744 0.182725 15.7403 0.106572 15.9231C0.0304187 16.1059 -0.00878906 16.302 -0.00878906 16.5C-0.00878906 16.698 0.0304187 16.8941 0.106572 17.0769C0.182725 17.2597 0.294316 17.4256 0.434908 17.565C0.574353 17.7056 0.740254 17.8172 0.923043 17.8933C1.10583 17.9695 1.30189 18.0087 1.49991 18.0087C1.69793 18.0087 1.89398 17.9695 2.07677 17.8933C2.25956 17.8172 2.42546 17.7056 2.56491 17.565L14.9999 5.13V13.5C14.9999 13.8978 15.1579 14.2794 15.4392 14.5607C15.7206 14.842 16.1021 15 16.4999 15C16.8977 15 17.2793 14.842 17.5606 14.5607C17.8419 14.2794 17.9999 13.8978 17.9999 13.5V1.575Z" fill="black" fill-opacity="0.8"/>
</svg>
