<svg width="54" height="54" viewBox="0 0 54 54" fill="none" xmlns="http://www.w3.org/2000/svg">
<path d="M45 13.5H6.75" stroke="#E777F5" stroke-width="3" stroke-linecap="round"/>
<path d="M22.5 36H6.75" stroke="#E777F5" stroke-width="3" stroke-linecap="round"/>
<path d="M20.25 24.75H6.75" stroke="#E777F5" stroke-width="3" stroke-linecap="round"/>
<path d="M36.5 24.3912L35.5303 25.3492C35.7856 25.6122 36.135 25.7605 36.5 25.7605C36.865 25.7605 37.2144 25.6122 37.4697 25.3492L36.5 24.3912ZM35.4776 34.6119C34.313 33.746 32.8221 32.5166 31.6356 31.1495C30.407 29.7337 29.7143 28.4081 29.7143 27.328H27C27 29.4476 28.2647 31.4223 29.5934 32.9535C30.9645 34.5332 32.6311 35.8972 33.8673 36.8164L35.4776 34.6119ZM29.7143 27.328C29.7143 25.3055 30.6091 24.2406 31.5298 23.8933C32.4657 23.5403 33.9578 23.7287 35.5303 25.3492L37.4697 23.4332C35.3781 21.2779 32.7988 20.4909 30.5792 21.3283C28.3445 22.1713 27 24.4626 27 27.328H29.7143ZM39.1327 36.8164C40.3689 35.8972 42.0355 34.5332 43.4066 32.9535C44.7353 31.4223 46 29.4476 46 27.328H43.2857C43.2857 28.4081 42.593 29.7339 41.3644 31.1495C40.1779 32.5166 38.687 33.746 37.5224 34.6119L39.1327 36.8164ZM46 27.328C46 24.4626 44.6555 22.1713 42.4208 21.3283C40.2012 20.4909 37.6219 21.2779 35.5303 23.4332L37.4697 25.3492C39.0422 23.7287 40.5343 23.5403 41.4702 23.8933C42.3909 24.2406 43.2857 25.3055 43.2857 27.328H46ZM33.8673 36.8164C34.5761 37.3435 35.3694 38 36.5 38V35.2615C36.4732 35.2615 36.4425 35.2657 36.3172 35.1974C36.1395 35.1003 35.9173 34.9389 35.4776 34.6119L33.8673 36.8164ZM37.5224 34.6119C37.0827 34.9389 36.8605 35.1003 36.6828 35.1974C36.5575 35.2657 36.5268 35.2615 36.5 35.2615V38C37.6306 38 38.4239 37.3435 39.1327 36.8164L37.5224 34.6119Z" fill="#E777F5"/>
</svg>
