<svg width="33" height="32" viewBox="0 0 33 32" fill="none" xmlns="http://www.w3.org/2000/svg">
<path d="M17.6583 5.0371C20.5557 3.18714 22.0045 2.26217 23.1183 2.83541C24.2321 3.40866 24.2733 5.10049 24.3557 8.48415L24.3771 9.35955C24.4004 10.3211 24.4121 10.8018 24.6103 11.2171C24.8084 11.6323 25.1705 11.9349 25.8948 12.5402L26.5541 13.0913C29.1027 15.2213 30.3769 16.2864 30.1383 17.5471C29.8996 18.8079 28.3061 19.4293 25.1189 20.6724L24.2944 20.9939C23.3887 21.3472 22.9359 21.5237 22.5963 21.8557C22.2567 22.1879 22.0688 22.6377 21.6931 23.5375L21.3509 24.3567C20.0285 27.5231 19.3673 29.1063 18.106 29.3123C16.8447 29.5181 15.8185 28.2104 13.7664 25.5951L13.2355 24.9184C12.6523 24.1752 12.3608 23.8035 11.9527 23.5936C11.5447 23.3836 11.0665 23.3589 10.11 23.3097L9.23924 23.2649C5.87336 23.0919 4.19043 23.0053 3.64957 21.8719C3.10871 20.7384 4.06812 19.3087 5.98695 16.4492L6.48337 15.7095C7.02864 14.8969 7.30128 14.4907 7.38871 14.0288C7.47613 13.5669 7.36847 13.1018 7.15311 12.1717L6.95705 11.3248C6.19923 8.05139 5.82032 6.4147 6.74735 5.50826C7.67439 4.60181 9.29341 5.02591 12.5315 5.87413L13.3692 6.09358C14.2893 6.33462 14.7495 6.45513 15.2115 6.3797C15.6735 6.30426 16.0852 6.04141 16.9087 5.51571L17.6583 5.0371Z" stroke="white" stroke-width="2"/>
<path d="M26.873 24.6263C26.4825 24.2357 25.8494 24.2357 25.4589 24.6263C25.0684 25.0168 25.0684 25.6499 25.4589 26.0404L26.873 24.6263ZM28.1256 28.7071C28.5161 29.0976 29.1492 29.0976 29.5397 28.7071C29.9302 28.3165 29.9302 27.6835 29.5397 27.2929L28.1256 28.7071ZM25.4589 26.0404L28.1256 28.7071L29.5397 27.2929L26.873 24.6263L25.4589 26.0404Z" fill="white"/>
</svg>
