<svg width="32" height="32" viewBox="0 0 32 32" fill="none" xmlns="http://www.w3.org/2000/svg">
<path d="M23.9998 17.3307H17.3332V23.9974C17.3332 24.351 17.1927 24.6902 16.9426 24.9402C16.6926 25.1903 16.3535 25.3307 15.9998 25.3307C15.6462 25.3307 15.3071 25.1903 15.057 24.9402C14.807 24.6902 14.6665 24.351 14.6665 23.9974V17.3307H7.99984C7.64622 17.3307 7.30708 17.1903 7.05703 16.9402C6.80698 16.6902 6.6665 16.351 6.6665 15.9974C6.6665 15.6438 6.80698 15.3046 7.05703 15.0546C7.30708 14.8045 7.64622 14.6641 7.99984 14.6641H14.6665V7.9974C14.6665 7.64377 14.807 7.30463 15.057 7.05459C15.3071 6.80454 15.6462 6.66406 15.9998 6.66406C16.3535 6.66406 16.6926 6.80454 16.9426 7.05459C17.1927 7.30463 17.3332 7.64377 17.3332 7.9974V14.6641H23.9998C24.3535 14.6641 24.6926 14.8045 24.9426 15.0546C25.1927 15.3046 25.3332 15.6438 25.3332 15.9974C25.3332 16.351 25.1927 16.6902 24.9426 16.9402C24.6926 17.1903 24.3535 17.3307 23.9998 17.3307Z" fill="white"/>
</svg>
