<svg width="33" height="32" viewBox="0 0 33 32" fill="none" xmlns="http://www.w3.org/2000/svg">
<path d="M4.5 13.8889C4.5 9.62539 4.5 7.49367 5.00336 6.77651C5.50671 6.05935 7.51109 5.37324 11.5199 4.00101L12.2836 3.73959C14.3733 3.02428 15.4181 2.66663 16.5 2.66663C17.5819 2.66663 18.6267 3.02428 20.7164 3.73959L21.4801 4.00101C25.4889 5.37324 27.4933 6.05935 27.9967 6.77651C28.5 7.49367 28.5 9.62539 28.5 13.8889C28.5 14.5328 28.5 15.2312 28.5 15.9885C28.5 23.5058 22.848 27.154 19.3019 28.703C18.34 29.1232 17.8591 29.3333 16.5 29.3333C15.1409 29.3333 14.66 29.1232 13.6981 28.703C10.1519 27.154 4.5 23.5058 4.5 15.9885C4.5 15.2312 4.5 14.5328 4.5 13.8889Z" stroke="white" stroke-width="2"/>
</svg>
