<svg width="33" height="32" viewBox="0 0 33 32" fill="none" xmlns="http://www.w3.org/2000/svg">
<path d="M13.5003 13.3333C16.4458 13.3333 18.8337 10.9455 18.8337 7.99996C18.8337 5.05444 16.4458 2.66663 13.5003 2.66663C10.5548 2.66663 8.16699 5.05444 8.16699 7.99996C8.16699 10.9455 10.5548 13.3333 13.5003 13.3333Z" stroke="white" stroke-width="2"/>
<path d="M24.1673 23.3334C24.1673 26.6471 24.1673 29.3334 13.5007 29.3334C2.83398 29.3334 2.83398 26.6471 2.83398 23.3334C2.83398 20.0196 7.60961 17.3334 13.5007 17.3334C19.3917 17.3334 24.1673 20.0196 24.1673 23.3334Z" stroke="white" stroke-width="2"/>
<path d="M25.5 11.5248L24.7908 12.2298C24.9785 12.4186 25.2337 12.5248 25.5 12.5248C25.7663 12.5248 26.0215 12.4186 26.2092 12.2298L25.5 11.5248ZM24.8913 15.9231C24.2428 15.4281 23.6587 15.0321 23.1879 14.5189C22.7516 14.0433 22.5 13.5518 22.5 12.933H20.5C20.5 14.1975 21.0523 15.1494 21.7141 15.8709C22.3415 16.5549 23.1496 17.1097 23.678 17.513L24.8913 15.9231ZM22.5 12.933C22.5 12.3837 22.8197 11.9396 23.2297 11.7582C23.5847 11.6011 24.1499 11.585 24.7908 12.2298L26.2092 10.8197C25.0503 9.65401 23.6153 9.40045 22.4204 9.92931C21.2803 10.4338 20.5 11.5991 20.5 12.933H22.5ZM23.678 17.513C23.8767 17.6645 24.1341 17.8613 24.4057 18.0149C24.6776 18.1687 25.0541 18.3334 25.5 18.3334V16.3334C25.5459 16.3334 25.5224 16.3487 25.3905 16.2742C25.2583 16.1994 25.1081 16.0885 24.8913 15.9231L23.678 17.513ZM27.322 17.513C27.8504 17.1097 28.6585 16.5549 29.2859 15.8709C29.9477 15.1494 30.5 14.1975 30.5 12.933H28.5C28.5 13.5518 28.2484 14.0433 27.8121 14.5189C27.3413 15.0321 26.7572 15.4281 26.1087 15.9231L27.322 17.513ZM30.5 12.933C30.5 11.5991 29.7197 10.4338 28.5796 9.92931C27.3847 9.40045 25.9497 9.65401 24.7908 10.8197L26.2092 12.2298C26.8501 11.585 27.4153 11.6011 27.7703 11.7582C28.1803 11.9396 28.5 12.3837 28.5 12.933H30.5ZM26.1087 15.9231C25.8919 16.0885 25.7417 16.1994 25.6095 16.2742C25.4776 16.3487 25.4541 16.3334 25.5 16.3334V18.3334C25.9459 18.3334 26.3224 18.1687 26.5943 18.0149C26.8659 17.8613 27.1233 17.6645 27.322 17.513L26.1087 15.9231Z" fill="white"/>
</svg>
